<svg width="20" height="20" viewBox="0 0 20 20" fill="none" xmlns="http://www.w3.org/2000/svg">
<path d="M9.96094 19.1113C15.1553 19.1113 19.418 14.8574 19.418 9.66309C19.418 4.46875 15.1553 0.206055 9.96094 0.206055C4.7666 0.206055 0.512695 4.46875 0.512695 9.66309C0.512695 14.8574 4.7666 19.1113 9.96094 19.1113ZM7.29785 13.4688C6.64746 13.4688 6.14648 12.9678 6.14648 12.3086C6.14648 12.0186 6.26953 11.7285 6.48926 11.5176L8.32617 9.67188L6.48926 7.83496C6.26953 7.61523 6.14648 7.3252 6.14648 7.03516C6.14648 6.37598 6.64746 5.875 7.29785 5.875C7.64941 5.875 7.92188 5.98926 8.15039 6.21777L9.96094 8.02832L11.7891 6.21777C12.0264 5.98047 12.2988 5.875 12.6504 5.875C13.3008 5.875 13.8018 6.37598 13.8018 7.03516C13.8018 7.3252 13.6787 7.60645 13.4502 7.82617L11.6221 9.67188L13.4502 11.5088C13.6699 11.7285 13.793 12.0186 13.793 12.3086C13.793 12.9678 13.292 13.4688 12.6416 13.4688C12.29 13.4688 12.0088 13.3633 11.7803 13.126L9.96094 11.3242L8.15918 13.126C7.93066 13.3633 7.64941 13.4688 7.29785 13.4688Z" fill="black"/>
</svg>
