<svg width="18" height="16" viewBox="0 0 18 16" fill="none" xmlns="http://www.w3.org/2000/svg">
<path d="M2.79297 15.6934H10.1484C11.7686 15.6934 12.6914 14.7705 12.6914 13.1367V10.3613H10.5791V12.8564C10.5791 13.335 10.3604 13.5811 9.84766 13.5811H3.08691C2.57422 13.5811 2.35547 13.335 2.35547 12.8564V3.28613C2.35547 2.80762 2.57422 2.56152 3.08691 2.56152H9.84766C10.3604 2.56152 10.5791 2.80762 10.5791 3.28613V5.81543H12.6914V2.99902C12.6914 1.37207 11.7686 0.449219 10.1484 0.449219H2.79297C1.16602 0.449219 0.243164 1.37207 0.243164 2.99902V13.1367C0.243164 14.7705 1.16602 15.6934 2.79297 15.6934ZM7.83789 8.9873H14.2979L15.2891 8.90527L14.7422 9.20605L13.9766 9.91699C13.8193 10.0742 13.7236 10.2793 13.7236 10.5117C13.7236 10.9082 14.0312 11.2979 14.4756 11.2979C14.7012 11.2979 14.8652 11.209 15.0225 11.0586L17.1758 8.80957C17.415 8.56348 17.4971 8.31738 17.4971 8.06445C17.4971 7.81152 17.415 7.55859 17.1758 7.31934L15.0225 5.07031C14.8652 4.91992 14.7012 4.83105 14.4756 4.83105C14.0312 4.83105 13.7236 5.21387 13.7236 5.61719C13.7236 5.84277 13.8193 6.05469 13.9766 6.20508L14.7422 6.92285L15.2959 7.22363L14.2979 7.1416H7.83789C7.35254 7.1416 6.92871 7.54492 6.92871 8.06445C6.92871 8.58398 7.35254 8.9873 7.83789 8.9873Z" fill="#DC2626"/>
</svg>
