<svg width="17" height="20" viewBox="0 0 17 20" fill="none" xmlns="http://www.w3.org/2000/svg">
<path d="M4.12256 16.2881C4.79932 16.2881 6.271 15.6489 7.41504 14.8594C7.54932 14.7681 7.65137 14.7412 7.7749 14.7412C7.83398 14.7466 7.88232 14.7466 7.90918 14.7466C11.8032 14.7358 15.1279 12.8667 15.1279 9.34863C15.1279 6.3623 12.1792 3.95605 8.5 3.95605C4.81543 3.95605 1.8667 6.3623 1.8667 9.34863C1.8667 11.0996 2.84961 12.7539 4.72949 13.7905C4.88525 13.8765 4.91211 13.957 4.84229 14.0967C4.48242 14.6929 3.99902 15.2568 3.76807 15.5522C3.44043 15.9497 3.63379 16.2881 4.12256 16.2881Z" fill="black"/>
</svg>
