<svg width="14" height="17" viewBox="0 0 14 17" fill="none" xmlns="http://www.w3.org/2000/svg">
<path d="M0.898438 11.7168C0.898438 14.9502 3.22949 16.9121 6.19629 16.9121C8.04199 16.9121 9.39551 16.249 10.4277 14.9229C11.46 13.7061 12.0957 11.5801 12.3623 10.7461C12.6426 9.88477 12.998 8.79785 13.0869 8.33301C13.1895 7.80664 12.9297 7.36914 12.4443 7.25977C11.8838 7.14355 11.4668 7.43066 11.2275 7.95703L10.25 10.1719C10.1816 10.3291 10.1201 10.377 10.0381 10.377C9.95605 10.377 9.8877 10.3291 9.8877 10.1514V2.75488C9.8877 2.20117 9.48438 1.79785 8.9375 1.79785C8.39062 1.79785 7.9873 2.20801 7.9873 2.75488V8.40137C7.83691 8.35352 7.68652 8.30566 7.52246 8.27148V1.83203C7.52246 1.27832 7.12598 0.881836 6.57227 0.881836C6.02539 0.881836 5.62891 1.27832 5.62891 1.83203V8.19629C5.47168 8.2168 5.30762 8.23047 5.15723 8.25098V2.37207C5.15723 1.83203 4.74707 1.41504 4.20703 1.41504C3.66016 1.41504 3.25684 1.83203 3.25684 2.37207V8.72949C3.09277 8.79785 2.94238 8.87988 2.79199 8.95508V4.51855C2.79199 3.96484 2.39551 3.56152 1.84863 3.56152C1.30176 3.56152 0.898438 3.96484 0.898438 4.51855V11.7168Z" fill="#2563EB"/>
</svg>
