<svg width="28" height="28" viewBox="0 0 28 28" fill="none" xmlns="http://www.w3.org/2000/svg">
<path fill-rule="evenodd" clip-rule="evenodd" d="M14 3.20825C15.1276 3.20825 16.0416 4.12234 16.0416 5.24992V11.9583H22.75C23.8776 11.9583 24.7916 12.8723 24.7916 13.9999C24.7916 15.1275 23.8776 16.0416 22.75 16.0416H16.0416V22.7499C16.0416 23.8775 15.1276 24.7916 14 24.7916C12.8724 24.7916 11.9583 23.8775 11.9583 22.7499V16.0416H5.24998C4.1224 16.0416 3.20831 15.1275 3.20831 13.9999C3.20831 12.8723 4.1224 11.9583 5.24998 11.9583H11.9583V5.24992C11.9583 4.12234 12.8724 3.20825 14 3.20825Z" fill="white"/>
</svg>
