<svg width="15" height="16" viewBox="0 0 15 16" fill="none" xmlns="http://www.w3.org/2000/svg">
<path d="M7.57227 15.4199C11.6123 15.4199 14.9277 12.1113 14.9277 8.07129C14.9277 4.03125 11.6123 0.71582 7.57227 0.71582C3.53223 0.71582 0.223633 4.03125 0.223633 8.07129C0.223633 12.1113 3.53223 15.4199 7.57227 15.4199ZM7.36719 9.34961C6.69727 9.34961 6.32129 9.07617 6.32129 8.55664V8.52246C6.32129 8.03027 6.65625 7.69531 7.16211 7.34668C7.71582 6.9707 8.0166 6.78613 8.0166 6.43066C8.0166 6.13672 7.74316 5.88379 7.3877 5.88379C7.10742 5.88379 6.88184 5.99316 6.65625 6.29395L6.60156 6.36914C6.41699 6.61523 6.16406 6.71777 5.84277 6.71777C5.37109 6.71777 5.03613 6.3623 5.03613 5.93164C5.03613 5.76758 5.07031 5.63086 5.13184 5.4873C5.44629 4.7627 6.36914 4.27051 7.60645 4.27051C9.07617 4.27051 10.2246 5.09082 10.2246 6.30762C10.2246 7.07324 9.88281 7.47656 9.11719 7.94824C8.75488 8.18066 8.43359 8.40625 8.34473 8.69336C8.33789 8.70703 8.33105 8.74121 8.32422 8.77539C8.24219 9.10352 7.87305 9.34961 7.36719 9.34961ZM7.37402 11.7695C6.75879 11.7695 6.28711 11.4141 6.28711 10.833C6.28711 10.2588 6.75879 9.88965 7.37402 9.88965C7.98926 9.88965 8.44043 10.2588 8.44043 10.833C8.44043 11.4209 7.98242 11.7695 7.37402 11.7695Z" fill="#2563EB"/>
</svg>
